<svg width="24" height="30" viewBox="0 0 24 30" fill="none" xmlns="http://www.w3.org/2000/svg">
<path d="M3 30C2.175 30 1.469 29.7065 0.882 29.1195C0.294 28.5315 0 27.825 0 27V10.2375C0 9.8375 0.0750001 9.456 0.225 9.093C0.375 8.731 0.5875 8.4125 0.8625 8.1375L8.1375 0.8625C8.4125 0.5875 8.731 0.375 9.093 0.225C9.456 0.0750001 9.8375 0 10.2375 0H21C21.825 0 22.5315 0.2935 23.1195 0.8805C23.7065 1.4685 24 2.175 24 3V27C24 27.825 23.7065 28.5315 23.1195 29.1195C22.5315 29.7065 21.825 30 21 30H3ZM12 21.8625C12.2 21.8625 12.3875 21.831 12.5625 21.768C12.7375 21.706 12.9 21.6 13.05 21.45L16.9875 17.5125C17.2625 17.2375 17.4 16.9 17.4 16.5C17.4 16.1 17.25 15.75 16.95 15.45C16.675 15.175 16.325 15.031 15.9 15.018C15.475 15.006 15.125 15.15 14.85 15.45L13.5 16.725V12C13.5 11.575 13.3565 11.2185 13.0695 10.9305C12.7815 10.6435 12.425 10.5 12 10.5C11.575 10.5 11.219 10.6435 10.932 10.9305C10.644 11.2185 10.5 11.575 10.5 12V16.725L9.15 15.4125C8.85 15.1375 8.5 15 8.1 15C7.7 15 7.35 15.15 7.05 15.45C6.775 15.725 6.6375 16.075 6.6375 16.5C6.6375 16.925 6.775 17.275 7.05 17.55L10.95 21.45C11.1 21.6 11.2625 21.706 11.4375 21.768C11.6125 21.831 11.8 21.8625 12 21.8625Z" fill="#138DA6"/>
</svg>
